/* XPM */
static char *icon[] = {
/* columns rows colors chars-per-pixel */
"48 48 256 2 ",
"   c #000F40",
".  c #001345",
"X  c #071840",
"o  c #01144C",
"O  c #001250",
"+  c #011A5B",
"@  c #04225D",
"#  c #022062",
"$  c #03256B",
"%  c #04296F",
"&  c #032670",
"*  c #052B73",
"=  c #053279",
"-  c #0F337F",
";  c #264076",
":  c #334770",
">  c #09368D",
",  c #054191",
"<  c #1A4091",
"1  c #224791",
"2  c #2A4E99",
"3  c #2D5C9E",
"4  c #074FA7",
"5  c #1A51AA",
"6  c #005DB3",
"7  c #0A5AB8",
"8  c #2F58A6",
"9  c #0261B5",
"0  c #0B63B5",
"q  c #0263BD",
"w  c #0A66B8",
"e  c #0F6ABA",
"r  c #1266B7",
"t  c #146BBA",
"y  c #1D72BE",
"u  c #2477BF",
"i  c #506484",
"p  c #727F89",
"a  c #637599",
"s  c #4D6BA8",
"d  c #4362A4",
"f  c #5F7CAA",
"g  c #5672B2",
"h  c #577ABC",
"j  c #5A7DBD",
"k  c #607DAE",
"l  c #697EAA",
"z  c #005FC0",
"x  c #0265C2",
"c  c #0E65C6",
"v  c #0D6CCF",
"b  c #1671C4",
"n  c #086FD7",
"m  c #046FDC",
"M  c #0A6FD9",
"N  c #136ED3",
"B  c #0470DF",
"V  c #0B74DF",
"C  c #1272D5",
"Z  c #1976DC",
"A  c #1678DE",
"S  c #197ADC",
"D  c #2164C1",
"F  c #2871C3",
"G  c #277AC4",
"H  c #2A7BC2",
"J  c #3671CB",
"K  c #347DC2",
"L  c #2974D2",
"P  c #2F7FDD",
"I  c #0772E1",
"U  c #0A74E2",
"Y  c #1076E0",
"T  c #157BE6",
"R  c #1F7BE1",
"E  c #187DE8",
"W  c #247FE3",
"Q  c #768189",
"!  c #7A8AA9",
"~  c #6D87B3",
"^  c #6D86BE",
"/  c #6F88BB",
"(  c #778DB5",
")  c #7089BE",
"_  c #3381C5",
"`  c #3C85C6",
"'  c #2180DE",
"]  c #3183D8",
"[  c #3688DE",
"{  c #3B8CD8",
"}  c #1C81EA",
"|  c #2481E1",
" . c #2C82E3",
".. c #2385ED",
"X. c #2886E8",
"o. c #2A89EE",
"O. c #348DED",
"+. c #2789F0",
"@. c #2E8EF2",
"#. c #3D98F8",
"$. c #3693F5",
"%. c #4084C5",
"&. c #4289C8",
"*. c #498ECB",
"=. c #4E91CC",
"-. c #5593CC",
";. c #5B99CF",
":. c #5C9CD1",
">. c #6887C6",
",. c #6888C2",
"<. c #758FC8",
"1. c #7699CD",
"2. c #7C9FCB",
"3. c #7D94C7",
"4. c #639ED3",
"5. c #6697DF",
"6. c #769BD1",
"7. c #5EA1D4",
"8. c #6DA4D5",
"9. c #7BA0D5",
"0. c #7DADDA",
"q. c #72ADDA",
"w. c #79B1DB",
"e. c #4A94E5",
"r. c #4C9AED",
"t. c #449EFB",
"y. c #5FA0E2",
"u. c #4AA1FD",
"i. c #53A3F6",
"p. c #65A2E3",
"a. c #72AEEB",
"s. c #72AAE5",
"d. c #7AB5E0",
"f. c #77B3F2",
"g. c #838C93",
"h. c #8099AA",
"j. c #8294B8",
"k. c #8A9AB9",
"l. c #8AA3B8",
"z. c #85A2BB",
"x. c #9CAFBF",
"c. c #A4AAAE",
"v. c #A7B2B9",
"b. c #B4B9BD",
"n. c #829BCC",
"m. c #889DC9",
"M. c #849BC5",
"N. c #87A3CB",
"B. c #8DA2C2",
"V. c #92A2C4",
"C. c #98ADC0",
"Z. c #9DB3C7",
"A. c #84A5D3",
"S. c #86ACDD",
"D. c #8EAFDB",
"F. c #84A4DC",
"G. c #93A6D3",
"H. c #94A8D7",
"J. c #94ABDD",
"K. c #8AB5DE",
"L. c #97B5D3",
"P. c #9CB2D4",
"I. c #91B6DC",
"U. c #9AB3DA",
"Y. c #92B8DA",
"T. c #A7B9C2",
"R. c #ACBDC5",
"E. c #A0B7CB",
"W. c #A5BACD",
"Q. c #A8BECF",
"!. c #AABFD1",
"~. c #A5B5DA",
"^. c #AABADF",
"/. c #82B0E3",
"(. c #8DB3E1",
"). c #85BAE0",
"_. c #92B3E3",
"`. c #99B3E5",
"'. c #95BCE3",
"]. c #9ABFE3",
"[. c #A5B6E0",
"{. c #A8B9E3",
"}. c #ABBEE9",
"|. c #A4BBE9",
" X c #9EC5DF",
".X c #B4C6CE",
"XX c #B4C8CE",
"oX c #BDC8CE",
"OX c #ADC2D2",
"+X c #B6C8D6",
"@X c #BECDD3",
"#X c #B3C5DF",
"$X c #B4CADF",
"%X c #BFCDD9",
"&X c #BED0DC",
"*X c #93C4E6",
"=X c #9EC1E4",
"-X c #A0C3E7",
";X c #AAC7E2",
":X c #A8C8E7",
">X c #A3C6E8",
",X c #A6C8ED",
"<X c #ADCCEA",
"1X c #B6C9E5",
"2X c #BFCBE3",
"3X c #B3CFEB",
"4X c #BECCED",
"5X c #B2D5E6",
"6X c #B6DAE7",
"7X c #BBDDE7",
"8X c #B6D1EC",
"9X c #BDD5EF",
"0X c #B4D9E9",
"qX c #BBDEE9",
"wX c #AED1F7",
"eX c #BAD5F4",
"rX c #CBCFD1",
"tX c #C6D1D7",
"yX c #CBD1D5",
"uX c #CAD5DD",
"iX c #D4DBDF",
"pX c #C0CCE3",
"aX c #C6D6E1",
"sX c #CCD4E6",
"dX c #CDDAE6",
"fX c #C2D6EA",
"gX c #C1D8EF",
"hX c #C9DBEA",
"jX c #D7DFE5",
"kX c #D3DDE9",
"lX c #CCDCF1",
"zX c #C5DBF1",
"xX c #C4E3E9",
"cX c #CCE4ED",
"vX c #CEE8ED",
"bX c #D5E5EE",
"nX c #DBE4EA",
"mX c #D3EBEE",
"MX c #DCE1E4",
"NX c #D3E6F0",
"BX c #D6EAF1",
"VX c #DBEBF2",
"CX c #DEF1F2",
"ZX c #E0E6E9",
"AX c #E4E8EB",
"SX c #EEEFEF",
"DX c #E4EDF3",
"FX c #E8EEF1",
"GX c #E6F1F5",
"HX c #EDF3F4",
"JX c #ECF5F9",
"KX c #EFF9FA",
"LX c #F1F7F9",
"PX c #F4FAFD",
"IX c #F9FFFF",
"UX c None",
/* pixels */
"UXUXUXUXUXUXUXUXUXUXUXUXUXUXUXUXUXUXUXUXUXUXUXUXUXUXUXUXCXUXUXUXUXUXUXUXUXUXUXUXUXUXUXUXUXUXUXUX",
"UXUXUXUXUXUXUXUXUXUXUXUXUXUXUXUXUXUXUXUXUXUXUXUXUXUXUXUXVXUXUXUXUXUXUXUXUXUXUXUXUXUXUXUXUXUXUXUX",
"UXUXUXUXUXUXUXUXUXUXUXUXUXUXUXUXUXUXUXUXUXUXUXUXUXUXUXUXVXUXUXUXUXUXUXUXUXUXUXUXUXUXUXUXUXUXUXUX",
"UXUXUXUXUXUXUXUXUXUXUXUXUXUXUXUXUXUXUXUXUXUXUXUXUXUXUXCXmXUXUXUXUXUXUXUXUXUXUXUXUXUXUXUXUXUXUXUX",
"UXUXUXUXUXUXUXUXUXUXUXUXUXUXUXUXUXUXUXUXUXUXUXUXUXUXUXCXmXUXUXUXUXUXUXUXUXUXUXUXUXUXUXUXUXUXUXUX",
"UXUXUXUXUXUXUXUXUXUXUXUXUXUXUXUXUXUXUXUXUXUXUXUXUXUXUXBXBXUXUXUXUXUXUXUXUXUXUXUXUXUXUXUXUXUXUXUX",
"UXUXUXUXUXUXUXUXUXUXUXUXUXUXUXUXUXUXUXUXUXUXUXUXUXUXUXmXUXUXUXUXUXUXUXUXUXUXUXUXUXUXUXUXUXUXUXUX",
"UXUXUXUXUXUXUXUXUXUXUXUXUXUXUXUXUXUXUXUXv.p Q g.c.b.yXyXAXUXUXUXUXUXUXUXUXUXUXUXUXUXUXUXUXUXUXUX",
"UXUXUXUXUXUXUXUXUXUXUXUXUXUXUXUXUXUXUXoXiXtXyXuXiXMXAXAXZXUXUXUXUXUXUXUXUXUXUXUXUXUXUXUXUXUXUXUX",
"UXUXUXUXUXUXUXUXUXUXUXUXUXUXUXUXUXUXUXl.tXtX.XR.T.R.R.XX! UXUXUXUXUXUXUXUXUXUXUXUXUXUXUXUXUXUXUX",
"UXUXUXUXUXUXUXUXUXUXUXUXUXUXUXUXUXUXUXE.LXJXVXUXUXUXBXCXUXUXUXUXUXUXUXUXUXUXUXUXUXUXUXUXUXUXUXUX",
"UXUXUXUXUXUXUXUXUXUXUXUXUXUXUXUXUXUXUXE.HXJXVXUXUXUXmXGXvXUXUXUXUXUXUXUXUXUXUXUXUXUXUXUXUXUXUXUX",
"UXUXUXUXUXUXUXUXUXUXUXUXUXUXUXUXUXUXUXE.KXJXBXUXUXUXmXJXjXUXUXUXUXUXUXUXUXUXUXUXUXUXUXUXUXUXUXUX",
"UXUXUXUXUXUXUXUXUXUXUXUXUXUXUXUXUXUXUXW.KXGXNXUXUXmXmXLXcXUXUXUXUXUXUXUXUXUXUXUXUXUXUXUXUXUXUXUX",
"UXUXUXUXUXUXUXUXUXUXUXUXUXUXUXUXUXUXUXW.KXDXNXUXUXmXmXLXbXUXUXUXUXUXUXUXUXUXUXUXUXUXUXUXUXUXUXUX",
"UXUXUXUXUXUXUXUXUXUXUXUXUXUXUXUXUXUXUXW.KXVXvXUXUXmXmXPXbXUXUXUXUXUXUXUXUXUXUXUXUXUXUXUXUXUXUXUX",
"UXUXUXUXUXUXUXUXUXUXUXUXUXUXUXUXUXUXUXQ.JXVXcXUXUXmXmXPXbXUXUXUXUXUXUXUXUXUXUXUXUXUXUXUXUXUXUXUX",
"UXUXUXUXUXUXUXUXUXUXUXUXUXUXUXUXUXUXUXQ.JXNXUXUXUXvXNXPXBXUXUXUXUXUXUXUXUXUXUXUXUXUXUXUXUXUXUXUX",
"UXUXUXUXUXUXUXUXUXUXUXUXUXUXUXUXUXUXUXOXJXNXUXUXUXvXvXUXBXUXUXUXUXUXUXUXUXUXUXUXUXUXUXUXUXUXUXUX",
"UXUXUXUXUXUXUXUXUXUXUXUXUXUXUXUXUXUXUX&XGXcXUXUXvXvXvXUXVXUXUXUXUXUXUXUXUXUXUXUXUXUXUXUXUXUXUXUX",
"UXUXUXUXUXUXUXUXUXUXUXUXUXUXUXUXUXUXz.nXVXcXUXUXvXcXUXUXJXUXUXUXUXUXUXUXUXUXUXUXUXUXUXUXUXUXUXUX",
"UXUXUXUXUXUXUXUXUXUXUXUXUXUXUXUXUXUXW.GXBXcXUXUXvXcXUXUXPXUXUXUXUXUXUXUXUXUXUXUXUXUXUXUXUXUXUXUX",
"UXUXUXUXUXUXUXUXUXUXUXUXUXUXUXUXUXUXaXGXNXcXUXUXvXqXUXUXUXUXUXUXUXUXUXUXUXUXUXUXUXUXUXUXUXUXUXUX",
"UXUXUXUXUXUXUXUXUXUXUXUXUXUXUXUXUXC.AXJXNXlXUXUXvXqXUXUXUXPXUXUXUXUXUXUXUXUXUXUXUXUXUXUXUXUXUXUX",
"UXUXUXUXUXUXUXUXUXUXUXUXUXUXUXUXUX+XLXDXmXUXUXUXxX7XUXUXUXIXUXUXUXUXUXUXUXUXUXUXUXUXUXUXUXUXUXUX",
"UXUXUXUXUXUXUXUXUXUXUXUXUXUXUXUXUXjXSXbXcXUXUXxXqXUXUXUXUXKXUXUXUXUXUXUXUXUXUXUXUXUXUXUXUXUXUXUX",
"UXUXUXUXUXUXUXUXUXUXUXUXUXUXUXUXW.HXFXbXcXUXUXcX7XUXUXUXUXKXIXUXUXUXUXUXUXUXUXUXUXUXUXUXUXUXUXUX",
"UXUXUXUXUXUXUXUXUXUXUXUXUXUXUXUXuXSXFXVXcXUXUXxX7XUXUXUXUXUXPXUXUXUXUXUXUXUXUXUXUXUXUXUXUXUXUXUX",
"UXUXUXUXUXUXUXUXUXUXUXUXUXUXUXC.FXHXDXbXcXUXUX7X5XUXUXUXUXUXPXUXUXUXUXUXUXUXUXUXUXUXUXUXUXUXUXUX",
"UXUXUXUXUXUXUXUXUXUXUXUXUXUXUXtXSXHXGXBXmXUXUX7X0XUXUXUXUXUXIXIXUXUXUXUXUXUXUXUXUXUXUXUXUXUXUXUX",
"UXUXUXUXUXUXUXUXUXUXUXUXUXUXx.ZXLXDXhX$XL.N.L.6XY.UXUXUXUXUXDXPXUXUXUXUXUXUXUXUXUXUXUXUXUXUXUXUX",
"UXUXUXUXUXUXUXUXUXUXUXUXUXUXB.sXjXsXpXn.j h 2.qX1.h j h ,.n.~.pX~.m.UXUXUXUXUXUXUXUXUXUXUXUXUXUX",
"UXUXUXUXUXUXUXUXUXUXUXUXUXUX,.dX2XP.A.1.6.9.U. XI._._.S.S.D.U.1XP.<.2 UXUXUXUXUXUXUXUXUXUXUXUXUX",
"UXUXUXUXUXUXUXUXUXUXUXUXUXk H.sX;X=X` 0 0 0 0 -.` r r r r K -.*X'.F.g UXUXUXUXUXUXUXUXUXUXUXUXUX",
"UXUXUXUXUXUXUXUXUXUXUXUXUXV.sXgXK.=.G 0 6 6 w q._ 6 9 6 0 G =.K.<XS.3.UXUXUXUXUXUXUXUXUXUXUXUXUX",
"UXUXUXUXUXUXUXUXUXUXUXUXk m.lXfX;XY.K.y 6 6 y ).G 6 9 9 9 u *.0.3X(.J.d UXUXUXUXUXUXUXUXUXUXUXUX",
"UXUXUXUXUXUXUXUXUXUXUXUX~ {.lX>X4._ t 9 6 6 ` *Xy 6 9 9 9 y &.8.3X=X`.^ UXUXUXUXUXUXUXUXUXUXUXUX",
"UXUXUXUXUXUXUXUXUXUXUXUX3.pXzX-X:._ t 9 9 6 7.*Xw 9 9 9 9 t ` 4.:X3X_.H.1 UXUXUXUXUXUXUXUXUXUXUX",
"UXUXUXUXUXUXUXUXUXUXUX~ H.lXgX'.-.H w 6 9 6 w.w.6 6 9 9 6 e _ ;.=X9X(.{.s UXUXUXUXUXUXUXUXUXUXUX",
"UXUXUXUXUXUXUXUXUXUXUX( ~.lXeX(.*.u 0 9 6 9 *X:.6 6 6 9 9 w u ;.K.zX'.}./ UXUXUXUXUXUXUXUXUXUXUX",
"UXUXUXUXUXUXUXUXUXUXUXj.{.lX8XS.*.b w q q b *X{ x x x q q q G *.0.gX=X|.m.UXUXUXUXUXUXUXUXUXUXUX",
"UXUXUXUXUXUXUXUXUXUXUXk.~.hX<Xs.{ A m m m I W U I I I I I I | e.a.eX=X`.G.UXUXUXUXUXUXUXUXUXUXUX",
"UXUXUXUXUXUXUXUXUXUXUX! B.#X,Xp.[ A I U U Y U T T E T E E T X.r.a.wX/.`.^ UXUXUXUXUXUXUXUXUXUXUX",
"UXUXUXUXUXUXUXUXUXUXUXi a l A.y.] C M Y T E } ....o.o.o.o.+.O.r.f.f.5.>.< UXUXUXUXUXUXUXUXUXUXUX",
"UXUXUXUXUXUXUXUXUXUXUXUXUX: ; 3 F v n V T } ..+.@.$.#.t.u.t.t.i.e.J 8 > UXUXUXUXUXUXUXUXUXUXUXUX",
"UXUXUXUXUXUXUXUXUXUXUXUXUXUXX . @ = , 4 7 c N Z W W W P P L D 5 > & . UXUXUXUXUXUXUXUXUXUXUXUXUX",
"UXUXUXUXUXUXUXUXUXUXUXUXUXUXUXUXUXUX  o + # $ % * * * & $ + O UXUXUXUXUXUXUXUXUXUXUXUXUXUXUXUXUX",
"UXUXUXUXUXUXUXUXUXUXUXUXUXUXUXUXUXUXUXUXUXUXUXUXUXUXUXUXUXUXUXUXUXUXUXUXUXUXUXUXUXUXUXUXUXUXUXUX"
};
